<svg width="1280" height="640" viewBox="0 0 1280 640" fill="none" xmlns="http://www.w3.org/2000/svg">
<g clip-path="url(#clip0_1_2)">
<rect width="1280" height="640" rx="56" fill="white"/>
<path d="M-172.366 386.414L-139.544 137.456C-138.058 126.183 -127.715 118.25 -116.443 119.736V119.736C-105.17 121.222 -97.2365 131.565 -98.7226 142.838L-131.544 391.796L-166.278 655.259C-167.764 666.531 -159.83 676.874 -148.558 678.36V678.36C-137.285 679.847 -126.942 671.913 -125.456 660.64L-90.7223 397.178L-55.9886 133.715C-54.5025 122.442 -44.1595 114.509 -32.8869 115.995V115.995C-21.6142 117.481 -13.6807 127.824 -15.1668 139.097L-49.9005 402.559L-80.5367 634.941C-82.0228 646.214 -74.0893 656.557 -62.8167 658.043V658.043C-51.544 659.529 -41.201 651.596 -39.7149 640.323L-9.07877 407.941L21.5574 175.559C23.0435 164.287 33.3865 156.353 44.6591 157.839V157.839C55.9317 159.326 63.8653 169.669 62.3791 180.941L31.743 413.323L-3.53704 680.93C-5.02317 692.202 2.91035 702.545 14.183 704.032V704.032C25.4556 705.518 35.7986 697.584 37.2847 686.312L72.5648 418.705L107.845 151.098C109.331 139.825 119.674 131.892 130.947 133.378V133.378C142.219 134.864 150.153 145.207 148.667 156.479L113.387 424.086L79.4724 681.333C77.9862 692.606 85.9198 702.949 97.1924 704.435V704.435C108.465 705.921 118.808 697.987 120.294 686.715L154.208 429.468L188.123 172.222C189.609 160.949 199.952 153.015 211.224 154.502V154.502C222.497 155.988 230.43 166.331 228.944 177.603L195.03 434.85L169.857 625.79C168.371 637.063 176.305 647.406 187.577 648.892V648.892C198.85 650.378 209.193 642.445 210.679 631.172L235.852 440.232L261.025 249.291C262.511 238.019 272.854 230.085 284.126 231.571V231.571C295.399 233.057 303.332 243.4 301.846 254.673L276.674 445.613L233.745 771.238C232.259 782.511 240.192 792.854 251.465 794.34V794.34C262.737 795.826 273.08 787.893 274.567 776.62L317.495 450.995L360.424 125.37C361.91 114.098 372.253 106.164 383.526 107.65V107.65C394.799 109.136 402.732 119.479 401.246 130.752L358.317 456.377L327.954 686.687C326.468 697.959 334.402 708.302 345.674 709.788V709.788C356.947 711.274 367.29 703.341 368.776 692.068L399.139 461.759L429.502 231.449C430.988 220.176 441.331 212.243 452.604 213.729V213.729C463.876 215.215 471.81 225.558 470.324 236.831L439.961 467.14L388.29 859.072C386.804 870.344 394.738 880.687 406.01 882.173V882.173C417.283 883.659 427.626 875.726 429.112 864.453L480.783 472.522L532.453 80.591C533.939 69.3184 544.282 61.3849 555.555 62.871V62.871C566.827 64.3571 574.761 74.7001 573.275 85.9728L521.604 477.904L487.69 735.15C486.204 746.423 494.138 756.766 505.41 758.252V758.252C516.683 759.738 527.026 751.805 528.512 740.532L562.426 483.286L596.34 226.039C597.826 214.766 608.169 206.833 619.442 208.319V208.319C630.715 209.805 638.648 220.148 637.162 231.421L603.248 488.667L571.519 729.337C570.033 740.61 577.966 750.953 589.239 752.439V752.439C600.512 753.925 610.855 745.992 612.341 734.719L644.07 494.049L675.798 253.379C677.285 242.107 687.628 234.173 698.9 235.659V235.659C710.173 237.145 718.106 247.488 716.62 258.761L684.891 499.431L645.241 800.191C643.754 811.464 651.688 821.807 662.961 823.293V823.293C674.233 824.779 684.576 816.845 686.062 805.573L725.713 504.813L765.364 204.053C766.85 192.78 777.193 184.846 788.466 186.333V186.333C799.738 187.819 807.672 198.162 806.186 209.434L766.535 510.194L725.245 823.387C723.759 834.66 731.693 845.003 742.965 846.489V846.489C754.238 847.975 764.581 840.041 766.067 828.769L807.357 515.576L848.647 202.384C850.133 191.111 860.476 183.178 871.748 184.664V184.664C883.021 186.15 890.954 196.493 889.468 207.765L848.178 520.958L811.533 798.925C810.046 810.198 817.98 820.541 829.253 822.027V822.027C840.525 823.513 850.868 815.58 852.354 804.307L889 526.34L925.646 248.372C927.132 237.1 937.475 229.166 948.748 230.652V230.652C960.021 232.138 967.954 242.482 966.468 253.754L929.822 531.721L903.284 733.022C901.797 744.295 909.731 754.638 921.004 756.124V756.124C932.276 757.61 942.619 749.677 944.105 738.404L970.644 537.103L997.182 335.803C998.668 324.53 1009.01 316.596 1020.28 318.083V318.083C1031.56 319.569 1039.49 329.912 1038 341.184L1011.47 542.485L976.459 808.02C974.973 819.292 982.906 829.635 994.179 831.122V831.122C1005.45 832.608 1015.79 824.674 1017.28 813.402L1052.29 547.867L1087.29 282.332C1088.78 271.059 1099.12 263.126 1110.4 264.612V264.612C1121.67 266.098 1129.6 276.441 1128.12 287.714L1093.11 553.248L1050.45 876.801C1048.97 888.074 1056.9 898.417 1068.17 899.903V899.903C1079.45 901.389 1089.79 893.456 1091.28 882.183L1133.93 558.63L1176.59 235.077C1178.07 223.805 1188.42 215.871 1199.69 217.357V217.357C1210.96 218.843 1218.89 229.186 1217.41 240.459L1174.75 564.012L1147.67 769.457C1146.18 780.729 1154.12 791.072 1165.39 792.559V792.559C1176.66 794.045 1187 786.111 1188.49 774.838L1215.57 569.394L1242.66 363.949C1244.15 352.676 1254.49 344.743 1265.76 346.229V346.229C1277.03 347.715 1284.97 358.058 1283.48 369.331L1256.4 574.775L1204.45 968.779C1202.97 980.051 1210.9 990.394 1222.17 991.88V991.88C1233.45 993.367 1243.79 985.433 1245.27 974.16L1297.22 580.157L1349.16 186.154C1350.65 174.881 1360.99 166.948 1372.26 168.434V168.434C1383.54 169.92 1391.47 180.263 1389.98 191.536L1338.04 585.539L1309.59 801.344C1308.1 812.617 1316.04 822.96 1327.31 824.446V824.446C1338.58 825.932 1348.92 817.998 1350.41 806.726L1378.86 590.921L1407.31 375.116C1408.8 363.843 1419.14 355.909 1430.41 357.396V357.396C1441.69 358.882 1449.62 369.225 1448.13 380.497L1419.68 596.302L1370.74 967.513C1369.26 978.786 1377.19 989.129 1388.46 990.615V990.615C1399.74 992.101 1410.08 984.167 1411.57 972.895L1460.51 601.684" stroke="#0D1117" stroke-width="4.11765"/>
<path d="M475.177 616.288C468.933 616.288 463.781 615.507 459.723 613.946C455.742 612.307 452.581 609.81 450.239 606.453C447.898 603.097 446.259 598.843 445.322 593.692C444.464 588.463 444.034 582.257 444.034 575.077C444.034 567.818 444.464 561.613 445.322 556.461C446.259 551.232 447.898 546.939 450.239 543.583C452.581 540.227 455.781 537.729 459.84 536.09C463.976 534.451 469.245 533.631 475.645 533.631C478.221 533.631 480.914 533.788 483.723 534.1C486.533 534.412 489.226 534.802 491.802 535.271C494.455 535.661 496.719 536.09 498.592 536.558L498.124 549.437C496.563 549.125 494.612 548.851 492.27 548.617C489.929 548.305 487.548 548.071 485.128 547.915C482.709 547.759 480.445 547.681 478.338 547.681C474.591 547.681 471.547 548.149 469.206 549.086C466.864 550.022 465.03 551.583 463.703 553.769C462.454 555.954 461.596 558.803 461.128 562.315C460.659 565.75 460.425 570.003 460.425 575.077C460.425 580.072 460.659 584.326 461.128 587.838C461.596 591.272 462.454 594.082 463.703 596.268C464.952 598.375 466.747 599.936 469.089 600.951C471.508 601.887 474.63 602.356 478.455 602.356C481.577 602.356 485.011 602.2 488.758 601.887C492.582 601.497 495.743 601.146 498.241 600.834L498.592 613.595C496.719 613.985 494.495 614.415 491.919 614.883C489.343 615.273 486.611 615.585 483.723 615.82C480.836 616.132 477.987 616.288 475.177 616.288ZM508.665 615V556.227H524.237V563.135C525.564 562.12 527.203 561.067 529.154 559.974C531.105 558.803 533.213 557.749 535.476 556.813C537.818 555.798 540.042 555.135 542.149 554.822V569.925C540.12 570.238 537.974 570.784 535.71 571.564C533.447 572.267 531.3 573.047 529.271 573.906C527.32 574.765 525.642 575.545 524.237 576.247V615H508.665ZM565.62 616.288C559.532 616.288 554.927 614.766 551.805 611.722C548.761 608.6 547.239 603.917 547.239 597.673C547.239 593.302 548.019 589.906 549.58 587.487C551.141 584.989 553.444 583.194 556.488 582.101C559.61 580.931 563.395 580.228 567.844 579.994L582.128 578.706V575.194C582.128 572.384 581.425 570.433 580.02 569.34C578.615 568.169 576.547 567.584 573.815 567.584C571.63 567.584 569.093 567.662 566.205 567.818C563.395 567.974 560.585 568.169 557.776 568.403C555.044 568.637 552.663 568.872 550.634 569.106L550.166 558.101C552.195 557.632 554.614 557.164 557.424 556.696C560.312 556.149 563.317 555.72 566.439 555.408C569.561 555.096 572.449 554.939 575.103 554.939C580.098 554.939 584.274 555.564 587.63 556.813C590.986 558.062 593.523 560.13 595.24 563.018C596.957 565.828 597.816 569.652 597.816 574.491V601.302C597.972 602.395 598.557 603.253 599.572 603.878C600.587 604.424 601.758 604.814 603.084 605.048L602.733 615.82C600.86 615.898 599.026 615.937 597.231 615.937C595.435 615.937 593.913 615.82 592.665 615.585C590.869 615.351 589.308 614.883 587.981 614.18C586.733 613.478 585.718 612.737 584.937 611.956C583.689 612.502 582.011 613.127 579.903 613.829C577.796 614.532 575.493 615.117 572.996 615.585C570.576 616.054 568.117 616.288 565.62 616.288ZM569.366 604.697C570.849 604.697 572.41 604.541 574.049 604.229C575.688 603.917 577.21 603.565 578.615 603.175C580.098 602.707 581.269 602.278 582.128 601.887V588.424L570.186 589.477C567.61 589.711 565.737 590.492 564.566 591.819C563.473 593.068 562.927 594.863 562.927 597.204C562.927 599.546 563.434 601.38 564.449 602.707C565.542 604.034 567.181 604.697 569.366 604.697ZM634.981 616.288C633.029 616.288 630.649 616.21 627.839 616.054C625.029 615.898 622.141 615.663 619.175 615.351C616.287 615.039 613.712 614.766 611.448 614.532V532.227H627.136V558.101C628.932 557.398 631.273 556.696 634.161 555.993C637.049 555.291 639.742 554.939 642.239 554.939C647.703 554.939 652.035 556.071 655.235 558.335C658.513 560.52 660.855 563.798 662.26 568.169C663.664 572.54 664.367 578.043 664.367 584.677C664.367 592.482 663.469 598.726 661.674 603.409C659.957 608.014 656.952 611.332 652.659 613.361C648.366 615.312 642.473 616.288 634.981 616.288ZM635.098 603.175C638.922 603.175 641.771 602.512 643.644 601.185C645.517 599.78 646.766 597.712 647.391 594.98C648.093 592.248 648.444 588.892 648.444 584.911C648.444 580.853 648.132 577.613 647.508 575.194C646.883 572.696 645.83 570.901 644.347 569.808C642.942 568.637 640.951 568.052 638.376 568.052C636.425 568.052 634.395 568.325 632.288 568.872C630.18 569.418 628.463 569.925 627.136 570.394V602.707C628.307 602.785 629.673 602.902 631.234 603.058C632.795 603.136 634.083 603.175 635.098 603.175ZM674.783 590.531V577.184H710.14V590.531H674.783ZM755.013 616.288C746.505 616.288 739.754 614.805 734.759 611.839C729.841 608.795 726.29 604.229 724.105 598.141C721.997 592.053 720.943 584.443 720.943 575.311C720.943 566.101 721.997 558.413 724.105 552.247C726.29 546.081 729.841 541.437 734.759 538.315C739.754 535.192 746.505 533.631 755.013 533.631C763.52 533.631 770.233 535.192 775.15 538.315C780.145 541.437 783.697 546.081 785.804 552.247C787.99 558.413 789.082 566.101 789.082 575.311C789.082 584.599 787.99 592.287 785.804 598.375C783.697 604.463 780.145 608.99 775.15 611.956C770.233 614.844 763.52 616.288 755.013 616.288ZM755.013 602.707C759.93 602.707 763.638 601.731 766.135 599.78C768.711 597.751 770.428 594.707 771.287 590.648C772.145 586.511 772.574 581.399 772.574 575.311C772.574 569.223 772.106 564.111 771.17 559.974C770.311 555.759 768.633 552.598 766.135 550.491C763.638 548.305 759.93 547.212 755.013 547.212C750.174 547.212 746.466 548.305 743.891 550.491C741.393 552.598 739.676 555.759 738.739 559.974C737.803 564.111 737.334 569.223 737.334 575.311C737.334 581.321 737.764 586.355 738.622 590.414C739.559 594.472 741.276 597.556 743.773 599.663C746.349 601.692 750.096 602.707 755.013 602.707ZM827.14 616.288C824.174 616.288 820.935 616.093 817.422 615.702C813.91 615.39 810.476 615 807.119 614.532C803.841 613.985 801.031 613.517 798.69 613.127L799.744 600.365C802.163 600.678 804.973 601.029 808.173 601.419C811.373 601.731 814.534 602.004 817.656 602.239C820.857 602.473 823.627 602.59 825.969 602.59C830.418 602.59 833.657 601.731 835.686 600.014C837.716 598.219 838.73 595.448 838.73 591.702C838.73 589.672 838.301 588.072 837.442 586.902C836.662 585.653 835.218 584.677 833.111 583.975C831.003 583.194 828.076 582.453 824.33 581.75C818.086 580.579 813.012 579.135 809.11 577.418C805.285 575.701 802.475 573.282 800.68 570.159C798.963 567.037 798.105 562.862 798.105 557.632C798.105 551.544 799.236 546.783 801.5 543.349C803.763 539.837 807.002 537.339 811.217 535.856C815.432 534.373 820.388 533.631 826.086 533.631C828.662 533.631 831.589 533.788 834.867 534.1C838.223 534.334 841.501 534.646 844.701 535.036C847.979 535.427 850.75 535.856 853.014 536.324L852.311 549.203C849.97 548.89 847.238 548.617 844.116 548.383C841.072 548.071 838.028 547.798 834.984 547.564C832.018 547.329 829.481 547.212 827.374 547.212C822.925 547.212 819.647 547.915 817.539 549.32C815.432 550.725 814.378 552.988 814.378 556.11C814.378 558.452 814.847 560.247 815.783 561.496C816.72 562.745 818.281 563.759 820.466 564.54C822.73 565.32 825.813 566.14 829.715 566.998C834.32 568.013 838.223 569.106 841.423 570.277C844.701 571.447 847.316 572.852 849.267 574.491C851.297 576.13 852.78 578.238 853.716 580.814C854.653 583.389 855.121 586.628 855.121 590.531C855.121 596.775 853.989 601.809 851.726 605.634C849.54 609.38 846.34 612.112 842.126 613.829C837.989 615.468 832.994 616.288 827.14 616.288Z" fill="#1E1E1E"/>
<path d="M459.723 613.946L459.26 615.071L459.273 615.076L459.286 615.081L459.723 613.946ZM450.239 606.453L451.237 605.757L451.237 605.757L450.239 606.453ZM445.322 593.692L444.122 593.889L444.124 593.899L444.126 593.91L445.322 593.692ZM445.322 556.461L444.125 556.247L444.124 556.254L444.122 556.262L445.322 556.461ZM450.239 543.583L451.237 544.279L451.237 544.279L450.239 543.583ZM459.84 536.09L459.392 534.959L459.384 534.962L459.84 536.09ZM483.723 534.1L483.858 532.891L483.858 532.891L483.723 534.1ZM491.802 535.271L491.584 536.467L491.604 536.471L491.625 536.474L491.802 535.271ZM498.592 536.558L499.808 536.603L499.843 535.618L498.887 535.378L498.592 536.558ZM498.124 549.437L497.885 550.629L499.287 550.91L499.339 549.481L498.124 549.437ZM492.27 548.617L492.109 549.823L492.129 549.826L492.149 549.827L492.27 548.617ZM485.128 547.915L485.05 549.129L485.05 549.129L485.128 547.915ZM463.703 553.769L462.664 553.138L462.655 553.151L462.647 553.165L463.703 553.769ZM461.128 562.315L462.333 562.48L462.333 562.476L461.128 562.315ZM461.128 587.838L459.922 587.999L459.922 588.002L461.128 587.838ZM463.703 596.268L462.647 596.871L462.652 596.879L462.657 596.888L463.703 596.268ZM469.089 600.951L468.605 602.067L468.627 602.076L468.65 602.085L469.089 600.951ZM488.758 601.887L488.859 603.099L488.87 603.098L488.881 603.097L488.758 601.887ZM498.241 600.834L499.457 600.8L499.42 599.461L498.09 599.627L498.241 600.834ZM498.592 613.595L498.84 614.786L499.836 614.578L499.808 613.562L498.592 613.595ZM491.919 614.883L492.101 616.085L492.119 616.083L492.136 616.08L491.919 614.883ZM483.723 615.82L483.625 614.607L483.609 614.609L483.593 614.61L483.723 615.82ZM475.177 615.072C469.022 615.072 464.032 614.301 460.159 612.811L459.286 615.081C463.531 616.714 468.843 617.504 475.177 617.504V615.072ZM460.186 612.822C456.409 611.267 453.438 608.912 451.237 605.757L449.242 607.149C451.724 610.707 455.075 613.348 459.26 615.071L460.186 612.822ZM451.237 605.757C449.019 602.579 447.433 598.5 446.519 593.474L444.126 593.91C445.085 599.187 446.777 603.616 449.242 607.149L451.237 605.757ZM446.522 593.495C445.677 588.349 445.251 582.213 445.251 575.077H442.818C442.818 582.302 443.25 588.576 444.122 593.889L446.522 593.495ZM445.251 575.077C445.251 567.861 445.678 561.727 446.522 556.661L444.122 556.262C443.25 561.499 442.818 567.775 442.818 575.077H445.251ZM446.519 556.676C447.434 551.57 449.021 547.455 451.237 544.279L449.242 542.887C446.775 546.424 445.084 550.894 444.125 556.247L446.519 556.676ZM451.237 544.279C453.434 541.13 456.439 538.775 460.295 537.218L459.384 534.962C455.123 536.683 451.728 539.324 449.242 542.887L451.237 544.279ZM460.288 537.221C464.234 535.657 469.337 534.848 475.645 534.848V532.415C469.153 532.415 463.719 533.245 459.392 534.959L460.288 537.221ZM475.645 534.848C478.172 534.848 480.82 535.001 483.589 535.309L483.858 532.891C481.008 532.574 478.27 532.415 475.645 532.415V534.848ZM483.589 535.309C486.373 535.618 489.038 536.004 491.584 536.467L492.019 534.074C489.414 533.6 486.693 533.206 483.858 532.891L483.589 535.309ZM491.625 536.474C494.253 536.86 496.475 537.283 498.297 537.738L498.887 535.378C496.963 534.898 494.658 534.461 491.979 534.067L491.625 536.474ZM497.377 536.514L496.908 549.393L499.339 549.481L499.808 536.603L497.377 536.514ZM498.362 548.244C496.749 547.922 494.755 547.644 492.391 547.407L492.149 549.827C494.468 550.059 496.377 550.328 497.885 550.629L498.362 548.244ZM492.431 547.412C490.061 547.096 487.653 546.859 485.207 546.701L485.05 549.129C487.443 549.283 489.796 549.514 492.109 549.823L492.431 547.412ZM485.207 546.701C482.765 546.544 480.475 546.464 478.338 546.464V548.897C480.416 548.897 482.653 548.974 485.05 549.129L485.207 546.701ZM478.338 546.464C474.505 546.464 471.291 546.942 468.754 547.956L469.658 550.215C471.803 549.357 474.678 548.897 478.338 548.897V546.464ZM468.754 547.956C466.164 548.992 464.125 550.73 462.664 553.138L464.743 554.4C465.935 552.436 467.564 551.052 469.658 550.215L468.754 547.956ZM462.647 553.165C461.296 555.531 460.403 558.545 459.922 562.155L462.333 562.476C462.788 559.061 463.613 556.378 464.759 554.372L462.647 553.165ZM459.922 562.151C459.444 565.658 459.209 569.971 459.209 575.077H461.641C461.641 570.036 461.874 565.841 462.333 562.48L459.922 562.151ZM459.209 575.077C459.209 580.106 459.444 584.417 459.922 587.999L462.333 587.677C461.874 584.235 461.641 580.038 461.641 575.077H459.209ZM459.922 588.002C460.404 591.537 461.298 594.51 462.647 596.871L464.759 595.664C463.611 593.655 462.787 591.008 462.333 587.674L459.922 588.002ZM462.657 596.888C464.042 599.225 466.039 600.955 468.605 602.067L469.572 599.835C467.455 598.917 465.862 597.525 464.75 595.648L462.657 596.888ZM468.65 602.085C471.259 603.095 474.545 603.572 478.455 603.572V601.139C474.716 601.139 471.758 600.68 469.528 599.817L468.65 602.085ZM478.455 603.572C481.617 603.572 485.085 603.414 488.859 603.099L488.657 600.675C484.937 600.985 481.537 601.139 478.455 601.139V603.572ZM488.881 603.097C492.711 602.707 495.882 602.354 498.392 602.041L498.09 599.627C495.605 599.937 492.454 600.288 488.634 600.677L488.881 603.097ZM497.025 600.867L497.376 613.629L499.808 613.562L499.457 600.8L497.025 600.867ZM498.344 612.404C496.484 612.792 494.27 613.219 491.701 613.686L492.136 616.08C494.719 615.61 496.954 615.179 498.84 614.786L498.344 612.404ZM491.737 613.68C489.192 614.066 486.488 614.375 483.625 614.607L483.822 617.032C486.735 616.796 489.495 616.48 492.101 616.085L491.737 613.68ZM483.593 614.61C480.747 614.918 477.942 615.072 475.177 615.072V617.504C478.032 617.504 480.924 617.345 483.854 617.029L483.593 614.61ZM508.665 615H507.449V616.216H508.665V615ZM508.665 556.227V555.011H507.449V556.227H508.665ZM524.237 556.227H525.453V555.011H524.237V556.227ZM524.237 563.135H523.02V565.596L524.975 564.101L524.237 563.135ZM529.154 559.974L529.748 561.035L529.764 561.026L529.78 561.017L529.154 559.974ZM535.476 556.813L535.941 557.937L535.95 557.933L535.96 557.929L535.476 556.813ZM542.149 554.822H543.366V553.413L541.971 553.619L542.149 554.822ZM542.149 569.925L542.334 571.127L543.366 570.969V569.925H542.149ZM535.71 571.564L536.071 572.726L536.089 572.72L536.107 572.714L535.71 571.564ZM529.271 573.906L528.797 572.786L528.789 572.789L528.781 572.793L529.271 573.906ZM524.237 576.247L523.693 575.16L523.02 575.496V576.247H524.237ZM524.237 615V616.216H525.453V615H524.237ZM509.882 615V556.227H507.449V615H509.882ZM508.665 557.444H524.237V555.011H508.665V557.444ZM523.02 556.227V563.135H525.453V556.227H523.02ZM524.975 564.101C526.244 563.131 527.832 562.108 529.748 561.035L528.56 558.913C526.574 560.025 524.883 561.11 523.498 562.169L524.975 564.101ZM529.78 561.017C531.676 559.879 533.729 558.852 535.941 557.937L535.011 555.689C532.696 556.647 530.535 557.727 528.528 558.931L529.78 561.017ZM535.96 557.929C538.222 556.948 540.344 556.319 542.328 556.025L541.971 553.619C539.74 553.95 537.413 554.648 534.992 555.697L535.96 557.929ZM540.933 554.822V569.925H543.366V554.822H540.933ZM541.965 568.723C539.853 569.048 537.635 569.614 535.314 570.415L536.107 572.714C538.312 571.954 540.388 571.427 542.334 571.127L541.965 568.723ZM535.35 570.403C533.051 571.116 530.866 571.91 528.797 572.786L529.745 575.026C531.734 574.184 533.843 573.417 536.071 572.726L535.35 570.403ZM528.781 572.793C526.818 573.657 525.12 574.446 523.693 575.16L524.781 577.335C526.163 576.644 527.822 575.872 529.761 575.019L528.781 572.793ZM523.02 576.247V615H525.453V576.247H523.02ZM524.237 613.784H508.665V616.216H524.237V613.784ZM551.805 611.722L550.934 612.571L550.945 612.582L550.956 612.593L551.805 611.722ZM549.58 587.487L550.602 588.146L550.607 588.139L550.612 588.131L549.58 587.487ZM556.488 582.101L556.899 583.246L556.907 583.243L556.915 583.24L556.488 582.101ZM567.844 579.994L567.908 581.208L567.931 581.207L567.953 581.205L567.844 579.994ZM582.128 578.706L582.237 579.917L583.344 579.818V578.706H582.128ZM580.02 569.34L579.242 570.274L579.257 570.287L579.274 570.3L580.02 569.34ZM566.205 567.818L566.139 566.604L566.138 566.604L566.205 567.818ZM557.776 568.403L557.675 567.191L557.672 567.192L557.776 568.403ZM550.634 569.106L549.419 569.158L549.474 570.464L550.773 570.314L550.634 569.106ZM550.166 558.101L549.892 556.915L548.907 557.143L548.95 558.152L550.166 558.101ZM557.424 556.696L557.624 557.895L557.637 557.893L557.65 557.891L557.424 556.696ZM566.439 555.408L566.318 554.198L566.318 554.198L566.439 555.408ZM587.63 556.813L587.206 557.953L587.206 557.953L587.63 556.813ZM595.24 563.018L594.195 563.639L594.199 563.646L594.202 563.652L595.24 563.018ZM597.816 601.302H596.6V601.388L596.612 601.474L597.816 601.302ZM599.572 603.878L598.935 604.913L598.965 604.932L598.995 604.949L599.572 603.878ZM603.084 605.048L604.3 605.088L604.334 604.034L603.296 603.851L603.084 605.048ZM602.733 615.82L602.784 617.035L603.912 616.988L603.949 615.859L602.733 615.82ZM592.665 615.585L592.889 614.39L592.855 614.384L592.822 614.379L592.665 615.585ZM587.981 614.18L587.385 615.24L587.399 615.248L587.412 615.255L587.981 614.18ZM584.937 611.956L585.797 611.096L585.21 610.509L584.45 610.842L584.937 611.956ZM579.903 613.829L580.288 614.983L580.288 614.983L579.903 613.829ZM572.996 615.585L572.771 614.39L572.764 614.391L572.996 615.585ZM574.049 604.229L573.822 603.034L573.822 603.034L574.049 604.229ZM578.615 603.175L578.941 604.347L578.961 604.341L578.982 604.335L578.615 603.175ZM582.128 601.887L582.631 602.995L583.344 602.671V601.887H582.128ZM582.128 588.424H583.344V587.095L582.021 587.212L582.128 588.424ZM570.186 589.477L570.079 588.266L570.076 588.266L570.186 589.477ZM564.566 591.819L563.654 591.014L563.651 591.018L564.566 591.819ZM564.449 602.707L563.483 603.446L563.496 603.463L563.51 603.48L564.449 602.707ZM565.62 615.072C559.722 615.072 555.471 613.598 552.654 610.851L550.956 612.593C554.382 615.933 559.342 617.504 565.62 617.504V615.072ZM552.675 610.873C549.933 608.06 548.455 603.737 548.455 597.673H546.022C546.022 604.097 547.588 609.139 550.934 612.571L552.675 610.873ZM548.455 597.673C548.455 593.423 549.218 590.292 550.602 588.146L548.558 586.828C546.821 589.521 546.022 593.181 546.022 597.673H548.455ZM550.612 588.131C552.013 585.889 554.085 584.256 556.899 583.246L556.077 580.957C552.802 582.132 550.269 584.09 548.549 586.842L550.612 588.131ZM556.915 583.24C559.889 582.125 563.544 581.438 567.908 581.208L567.78 578.779C563.246 579.018 559.331 579.736 556.061 580.963L556.915 583.24ZM567.953 581.205L582.237 579.917L582.018 577.495L567.735 578.783L567.953 581.205ZM583.344 578.706V575.194H580.911V578.706H583.344ZM583.344 575.194C583.344 572.228 582.606 569.81 580.767 568.38L579.274 570.3C580.244 571.055 580.911 572.54 580.911 575.194H583.344ZM580.799 568.406C579.09 566.982 576.696 566.368 573.815 566.368V568.8C576.398 568.8 578.141 569.357 579.242 570.274L580.799 568.406ZM573.815 566.368C571.602 566.368 569.043 566.447 566.139 566.604L566.271 569.032C569.143 568.877 571.657 568.8 573.815 568.8V566.368ZM566.138 566.604C563.317 566.76 560.496 566.956 557.675 567.191L557.877 569.615C560.675 569.382 563.474 569.188 566.273 569.032L566.138 566.604ZM557.672 567.192C554.932 567.426 552.539 567.662 550.494 567.898L550.773 570.314C552.788 570.082 555.156 569.849 557.879 569.615L557.672 567.192ZM551.849 569.054L551.381 558.049L548.95 558.152L549.419 569.158L551.849 569.054ZM550.439 559.286C552.437 558.825 554.831 558.361 557.624 557.895L557.224 555.496C554.398 555.967 551.953 556.44 549.892 556.915L550.439 559.286ZM557.65 557.891C560.501 557.351 563.471 556.927 566.56 556.618L566.318 554.198C563.163 554.513 560.123 554.947 557.198 555.501L557.65 557.891ZM566.56 556.618C569.649 556.309 572.496 556.156 575.103 556.156V553.723C572.402 553.723 569.474 553.882 566.318 554.198L566.56 556.618ZM575.103 556.156C580.006 556.156 584.028 556.77 587.206 557.953L588.054 555.673C584.52 554.358 580.19 553.723 575.103 553.723V556.156ZM587.206 557.953C590.321 559.111 592.629 561.006 594.195 563.639L596.286 562.396C594.417 559.253 591.652 557.012 588.054 555.673L587.206 557.953ZM594.202 563.652C595.76 566.201 596.6 569.777 596.6 574.491H599.032C599.032 569.527 598.154 565.454 596.278 562.384L594.202 563.652ZM596.6 574.491V601.302H599.032V574.491H596.6ZM596.612 601.474C596.824 602.956 597.64 604.117 598.935 604.913L600.209 602.842C599.475 602.39 599.12 601.834 599.02 601.13L596.612 601.474ZM598.995 604.949C600.142 605.566 601.44 605.993 602.873 606.246L603.296 603.851C602.076 603.635 601.032 603.282 600.149 602.807L598.995 604.949ZM601.869 605.009L601.518 615.78L603.949 615.859L604.3 605.088L601.869 605.009ZM602.683 614.604C600.825 614.682 599.008 614.72 597.231 614.72V617.153C599.043 617.153 600.894 617.113 602.784 617.035L602.683 614.604ZM597.231 614.72C595.482 614.72 594.04 614.606 592.889 614.39L592.44 616.781C593.786 617.033 595.388 617.153 597.231 617.153V614.72ZM592.822 614.379C591.142 614.16 589.726 613.728 588.551 613.106L587.412 615.255C588.891 616.038 590.597 616.542 592.507 616.791L592.822 614.379ZM588.578 613.12C587.398 612.457 586.48 611.779 585.797 611.096L584.077 612.816C584.956 613.694 586.067 614.499 587.385 615.24L588.578 613.12ZM584.45 610.842C583.249 611.367 581.61 611.978 579.519 612.675L580.288 614.983C582.411 614.275 584.128 613.638 585.425 613.07L584.45 610.842ZM579.519 612.675C577.47 613.358 575.222 613.93 572.771 614.39L573.22 616.781C575.764 616.304 578.121 615.705 580.288 614.983L579.519 612.675ZM572.764 614.391C570.422 614.845 568.041 615.072 565.62 615.072V617.504C568.194 617.504 570.73 617.263 573.227 616.779L572.764 614.391ZM569.366 605.913C570.934 605.913 572.572 605.748 574.277 605.424L573.822 603.034C572.248 603.334 570.764 603.481 569.366 603.481V605.913ZM574.277 605.424C575.944 605.106 577.499 604.747 578.941 604.347L578.29 602.003C576.921 602.383 575.432 602.727 573.822 603.034L574.277 605.424ZM578.982 604.335C580.485 603.86 581.709 603.414 582.631 602.995L581.624 600.78C580.83 601.141 579.711 601.554 578.249 602.015L578.982 604.335ZM583.344 601.887V588.424H580.911V601.887H583.344ZM582.021 587.212L570.079 588.266L570.293 590.689L582.234 589.635L582.021 587.212ZM570.076 588.266C567.332 588.515 565.108 589.366 563.654 591.014L565.478 592.623C566.365 591.618 567.888 590.907 570.296 590.688L570.076 588.266ZM563.651 591.018C562.297 592.565 561.711 594.688 561.711 597.204H564.143C564.143 595.037 564.649 593.57 565.481 592.62L563.651 591.018ZM561.711 597.204C561.711 599.708 562.252 601.836 563.483 603.446L565.415 601.968C564.617 600.924 564.143 599.384 564.143 597.204H561.711ZM563.51 603.48C564.894 605.161 566.924 605.913 569.366 605.913V603.481C567.437 603.481 566.189 602.907 565.388 601.934L563.51 603.48ZM619.175 615.351L619.044 616.56L619.048 616.561L619.175 615.351ZM611.448 614.532H610.232V615.629L611.323 615.741L611.448 614.532ZM611.448 532.227V531.01H610.232V532.227H611.448ZM627.136 532.227H628.353V531.01H627.136V532.227ZM627.136 558.101H625.92V559.882L627.58 559.233L627.136 558.101ZM634.161 555.993L634.448 557.175L634.448 557.175L634.161 555.993ZM655.235 558.335L654.533 559.328L654.546 559.337L654.56 559.347L655.235 558.335ZM662.26 568.169L661.102 568.541L661.102 568.541L662.26 568.169ZM661.674 603.409L660.538 602.974L660.535 602.984L661.674 603.409ZM652.659 613.361L653.162 614.468L653.171 614.464L653.179 614.46L652.659 613.361ZM643.644 601.185L644.347 602.177L644.361 602.168L644.374 602.158L643.644 601.185ZM647.391 594.98L646.213 594.677L646.209 594.693L646.205 594.709L647.391 594.98ZM647.508 575.194L646.328 575.489L646.33 575.498L647.508 575.194ZM644.347 569.808L643.568 570.743L643.596 570.766L643.625 570.787L644.347 569.808ZM627.136 570.394L626.732 569.247L625.92 569.533V570.394H627.136ZM627.136 602.707H625.92V603.845L627.055 603.92L627.136 602.707ZM631.234 603.058L631.113 604.268L631.143 604.271L631.173 604.273L631.234 603.058ZM634.981 615.072C633.059 615.072 630.703 614.995 627.906 614.839L627.771 617.268C630.595 617.425 632.999 617.504 634.981 617.504V615.072ZM627.906 614.839C625.118 614.684 622.25 614.452 619.302 614.142L619.048 616.561C622.033 616.875 624.94 617.111 627.771 617.268L627.906 614.839ZM619.306 614.142C616.417 613.83 613.839 613.556 611.573 613.322L611.323 615.741C613.584 615.975 616.158 616.248 619.044 616.56L619.306 614.142ZM612.664 614.532V532.227H610.232V614.532H612.664ZM611.448 533.443H627.136V531.01H611.448V533.443ZM625.92 532.227V558.101H628.353V532.227H625.92ZM627.58 559.233C629.305 558.558 631.588 557.871 634.448 557.175L633.874 554.811C630.958 555.521 628.559 556.238 626.693 556.968L627.58 559.233ZM634.448 557.175C637.259 556.491 639.855 556.156 642.239 556.156V553.723C639.629 553.723 636.838 554.09 633.874 554.811L634.448 557.175ZM642.239 556.156C647.548 556.156 651.604 557.257 654.533 559.328L655.937 557.342C652.465 554.886 647.858 553.723 642.239 553.723V556.156ZM654.56 559.347C657.573 561.355 659.766 564.387 661.102 568.541L663.417 567.797C661.943 563.21 659.453 559.685 655.91 557.323L654.56 559.347ZM661.102 568.541C662.455 572.751 663.151 578.118 663.151 584.677H665.583C665.583 577.967 664.874 572.329 663.417 567.797L661.102 568.541ZM663.151 584.677C663.151 592.407 662.259 598.485 660.538 602.974L662.81 603.845C664.679 598.967 665.583 592.557 665.583 584.677H663.151ZM660.535 602.984C658.924 607.304 656.135 610.373 652.139 612.261L653.179 614.46C657.769 612.29 660.99 608.725 662.814 603.834L660.535 602.984ZM652.156 612.254C648.087 614.103 642.391 615.072 634.981 615.072V617.504C642.556 617.504 648.646 616.521 653.162 614.468L652.156 612.254ZM635.098 604.391C639.022 604.391 642.172 603.718 644.347 602.177L642.941 600.192C641.37 601.306 638.822 601.959 635.098 601.959V604.391ZM644.374 602.158C646.521 600.548 647.901 598.205 648.576 595.251L646.205 594.709C645.632 597.218 644.514 599.012 642.915 600.212L644.374 602.158ZM648.569 595.283C649.305 592.421 649.661 588.956 649.661 584.911H647.228C647.228 588.828 646.882 592.075 646.213 594.677L648.569 595.283ZM649.661 584.911C649.661 580.805 649.346 577.451 648.685 574.89L646.33 575.498C646.918 577.776 647.228 580.9 647.228 584.911H649.661ZM648.688 574.899C648.022 572.235 646.855 570.146 645.068 568.829L643.625 570.787C644.805 571.656 645.745 573.158 646.328 575.489L648.688 574.899ZM645.125 568.874C643.428 567.459 641.121 566.836 638.376 566.836V569.268C640.782 569.268 642.456 569.816 643.568 570.743L645.125 568.874ZM638.376 566.836C636.31 566.836 634.178 567.125 631.983 567.694L632.593 570.049C634.612 569.525 636.539 569.268 638.376 569.268V566.836ZM631.983 567.694C629.858 568.245 628.104 568.762 626.732 569.247L627.541 571.541C628.823 571.088 630.503 570.591 632.593 570.049L631.983 567.694ZM625.92 570.394V602.707H628.353V570.394H625.92ZM627.055 603.92C628.209 603.997 629.561 604.113 631.113 604.268L631.355 601.848C629.785 601.691 628.405 601.573 627.217 601.493L627.055 603.92ZM631.173 604.273C632.745 604.351 634.055 604.391 635.098 604.391V601.959C634.111 601.959 632.845 601.921 631.295 601.843L631.173 604.273ZM674.783 590.531H673.567V591.747H674.783V590.531ZM674.783 577.184V575.968H673.567V577.184H674.783ZM710.14 577.184H711.357V575.968H710.14V577.184ZM710.14 590.531V591.747H711.357V590.531H710.14ZM675.999 590.531V577.184H673.567V590.531H675.999ZM674.783 578.4H710.14V575.968H674.783V578.4ZM708.924 577.184V590.531H711.357V577.184H708.924ZM710.14 589.315H674.783V591.747H710.14V589.315ZM734.759 611.839L734.118 612.873L734.128 612.879L734.138 612.885L734.759 611.839ZM724.105 598.141L722.955 598.539L722.96 598.552L724.105 598.141ZM724.105 552.247L722.958 551.84L722.954 551.853L724.105 552.247ZM734.759 538.315L734.114 537.283L734.107 537.288L734.759 538.315ZM775.15 538.315L774.498 539.341L774.506 539.346L775.15 538.315ZM785.804 552.247L784.653 552.64L784.658 552.653L785.804 552.247ZM785.804 598.375L784.659 597.964L784.655 597.977L785.804 598.375ZM775.15 611.956L775.766 613.005L775.771 613.002L775.15 611.956ZM766.135 599.78L766.884 600.738L766.888 600.735L766.135 599.78ZM771.287 590.648L772.476 590.9L772.477 590.895L771.287 590.648ZM771.17 559.974L769.978 560.217L769.98 560.229L769.983 560.242L771.17 559.974ZM766.135 550.491L765.334 551.406L765.343 551.413L765.351 551.42L766.135 550.491ZM743.891 550.491L744.675 551.42L744.677 551.418L743.891 550.491ZM738.739 559.974L739.925 560.242L739.926 560.238L738.739 559.974ZM738.622 590.414L737.432 590.666L737.435 590.676L737.437 590.687L738.622 590.414ZM743.773 599.663L742.989 600.592L743.005 600.606L743.021 600.618L743.773 599.663ZM755.013 615.072C746.629 615.072 740.119 613.607 735.379 610.793L734.138 612.885C739.388 616.002 746.382 617.504 755.013 617.504V615.072ZM735.399 610.805C730.743 607.923 727.353 603.592 725.249 597.73L722.96 598.552C725.227 604.866 728.94 609.667 734.118 612.873L735.399 610.805ZM725.254 597.743C723.205 591.824 722.16 584.359 722.16 575.311H719.727C719.727 584.526 720.789 592.282 722.955 598.539L725.254 597.743ZM722.16 575.311C722.16 566.184 723.205 558.639 725.255 552.64L722.954 551.853C720.789 558.187 719.727 566.018 719.727 575.311H722.16ZM725.251 552.653C727.357 546.71 730.751 542.3 735.41 539.341L734.107 537.288C728.932 540.573 725.223 545.451 722.958 551.84L725.251 552.653ZM735.403 539.346C740.137 536.387 746.637 534.848 755.013 534.848V532.415C746.373 532.415 739.37 533.998 734.114 537.283L735.403 539.346ZM755.013 534.848C763.39 534.848 769.846 536.388 774.498 539.341L775.802 537.288C770.62 533.997 763.651 532.415 755.013 532.415V534.848ZM774.506 539.346C779.238 542.304 782.626 546.709 784.653 552.64L786.955 551.853C784.767 545.453 781.053 540.569 775.795 537.283L774.506 539.346ZM784.658 552.653C786.782 558.647 787.866 566.187 787.866 575.311H790.299C790.299 566.014 789.197 558.178 786.95 551.84L784.658 552.653ZM787.866 575.311C787.866 584.515 786.782 592.052 784.659 597.964L786.949 598.786C789.197 592.522 790.299 584.683 790.299 575.311H787.866ZM784.655 597.977C782.631 603.825 779.25 608.107 774.529 610.91L775.771 613.002C781.041 609.873 784.763 605.101 786.953 598.773L784.655 597.977ZM774.534 610.907C769.874 613.644 763.403 615.072 755.013 615.072V617.504C763.638 617.504 770.592 616.043 775.766 613.005L774.534 610.907ZM755.013 603.923C760.06 603.923 764.083 602.927 766.884 600.738L765.386 598.822C763.192 600.536 759.8 601.491 755.013 601.491V603.923ZM766.888 600.735C769.741 598.487 771.575 595.161 772.476 590.9L770.097 590.396C769.281 594.252 767.681 597.014 765.383 598.825L766.888 600.735ZM772.477 590.895C773.358 586.65 773.791 581.449 773.791 575.311H771.358C771.358 581.349 770.932 586.372 770.096 590.401L772.477 590.895ZM773.791 575.311C773.791 569.168 773.319 563.959 772.356 559.705L769.983 560.242C770.893 564.262 771.358 569.278 771.358 575.311H773.791ZM772.361 559.731C771.465 555.333 769.684 551.894 766.92 549.561L765.351 551.42C767.581 553.302 769.157 556.185 769.978 560.217L772.361 559.731ZM766.936 549.575C764.131 547.121 760.087 545.996 755.013 545.996V548.429C759.774 548.429 763.144 549.489 765.334 551.406L766.936 549.575ZM755.013 545.996C750.008 545.996 745.977 547.125 743.104 549.563L744.677 551.418C746.955 549.485 750.339 548.429 755.013 548.429V545.996ZM743.106 549.561C740.348 551.888 738.528 555.319 737.552 559.71L739.926 560.238C740.824 556.2 742.438 553.308 744.675 551.42L743.106 549.561ZM737.553 559.705C736.59 563.959 736.118 569.168 736.118 575.311H738.55C738.55 569.278 739.015 564.262 739.925 560.242L737.553 559.705ZM736.118 575.311C736.118 581.371 736.55 586.496 737.432 590.666L739.812 590.162C738.977 586.214 738.55 581.27 738.55 575.311H736.118ZM737.437 590.687C738.416 594.931 740.241 598.274 742.989 600.592L744.558 598.733C742.31 596.837 740.701 594.014 739.807 590.14L737.437 590.687ZM743.021 600.618C745.895 602.883 749.953 603.923 755.013 603.923V601.491C750.238 601.491 746.804 600.502 744.526 598.708L743.021 600.618ZM817.422 615.702L817.557 614.494L817.543 614.492L817.53 614.491L817.422 615.702ZM807.119 614.532L806.92 615.731L806.935 615.734L806.951 615.736L807.119 614.532ZM798.69 613.127L797.478 613.027L797.386 614.142L798.49 614.326L798.69 613.127ZM799.744 600.365L799.899 599.159L798.636 598.996L798.532 600.265L799.744 600.365ZM808.173 601.419L808.026 602.626L808.04 602.628L808.055 602.63L808.173 601.419ZM817.656 602.239L817.565 603.451L817.568 603.452L817.656 602.239ZM835.686 600.014L836.472 600.943L836.482 600.934L836.492 600.925L835.686 600.014ZM837.442 586.902L836.411 587.546L836.435 587.584L836.462 587.621L837.442 586.902ZM833.111 583.975L832.688 585.115L832.707 585.122L832.726 585.128L833.111 583.975ZM824.33 581.75L824.106 582.946L824.106 582.946L824.33 581.75ZM809.11 577.418L808.612 578.528L808.62 578.531L809.11 577.418ZM800.68 570.159L799.615 570.746L799.62 570.756L799.626 570.766L800.68 570.159ZM801.5 543.349L802.515 544.018L802.522 544.008L801.5 543.349ZM811.217 535.856L810.814 534.709L810.814 534.709L811.217 535.856ZM834.867 534.1L834.751 535.31L834.767 535.312L834.782 535.313L834.867 534.1ZM844.701 535.036L844.554 536.244L844.557 536.244L844.701 535.036ZM853.014 536.324L854.228 536.39L854.285 535.345L853.26 535.133L853.014 536.324ZM852.311 549.203L852.15 550.408L853.454 550.582L853.526 549.269L852.311 549.203ZM844.116 548.383L843.992 549.593L844.008 549.595L844.025 549.596L844.116 548.383ZM834.984 547.564L834.888 548.776L834.891 548.776L834.984 547.564ZM817.539 549.32L816.865 548.308L816.865 548.308L817.539 549.32ZM815.783 561.496L814.81 562.226L814.81 562.226L815.783 561.496ZM820.466 564.54L820.057 565.685L820.07 565.69L820.466 564.54ZM829.715 566.998L829.977 565.811L829.977 565.811L829.715 566.998ZM841.423 570.277L841.005 571.419L841.014 571.422L841.423 570.277ZM849.267 574.491L848.485 575.423L848.494 575.43L848.503 575.437L849.267 574.491ZM853.716 580.814L854.859 580.398L854.859 580.398L853.716 580.814ZM851.726 605.634L850.679 605.014L850.675 605.021L851.726 605.634ZM842.126 613.829L842.574 614.96L842.584 614.956L842.126 613.829ZM827.14 615.072C824.226 615.072 821.032 614.88 817.557 614.494L817.288 616.911C820.837 617.306 824.121 617.504 827.14 617.504V615.072ZM817.53 614.491C814.037 614.181 810.623 613.793 807.288 613.327L806.951 615.736C810.328 616.207 813.783 616.6 817.315 616.914L817.53 614.491ZM807.319 613.332C804.041 612.786 801.231 612.317 798.89 611.927L798.49 614.326C800.832 614.717 803.641 615.185 806.92 615.731L807.319 613.332ZM799.902 613.227L800.956 600.465L798.532 600.265L797.478 613.027L799.902 613.227ZM799.588 601.572C802.011 601.884 804.824 602.236 808.026 602.626L808.32 600.212C805.122 599.822 802.315 599.471 799.899 599.159L799.588 601.572ZM808.055 602.63C811.264 602.943 814.434 603.217 817.565 603.451L817.747 601.026C814.635 600.792 811.483 600.52 808.291 600.209L808.055 602.63ZM817.568 603.452C820.787 603.687 823.589 603.806 825.969 603.806V601.374C823.665 601.374 820.926 601.258 817.745 601.026L817.568 603.452ZM825.969 603.806C830.527 603.806 834.117 602.935 836.472 600.943L834.901 599.086C833.197 600.527 830.309 601.374 825.969 601.374V603.806ZM836.492 600.925C838.871 598.821 839.946 595.658 839.946 591.702H837.514C837.514 595.238 836.56 597.617 834.88 599.103L836.492 600.925ZM839.946 591.702C839.946 589.514 839.485 587.63 838.423 586.182L836.462 587.621C837.117 588.514 837.514 589.831 837.514 591.702H839.946ZM838.474 586.257C837.484 584.673 835.74 583.569 833.495 582.821L832.726 585.128C834.696 585.785 835.84 586.633 836.411 587.546L838.474 586.257ZM833.533 582.834C831.332 582.019 828.328 581.262 824.554 580.555L824.106 582.946C827.824 583.643 830.674 584.369 832.688 585.115L833.533 582.834ZM824.554 580.555C818.361 579.394 813.387 577.971 809.6 576.305L808.62 578.531C812.638 580.299 817.81 581.765 824.106 582.946L824.554 580.555ZM809.608 576.309C805.978 574.679 803.382 572.418 801.735 569.553L799.626 570.766C801.569 574.145 804.593 576.723 808.612 578.528L809.608 576.309ZM801.746 569.573C800.163 566.695 799.321 562.746 799.321 557.632H796.888C796.888 562.978 797.763 567.379 799.615 570.746L801.746 569.573ZM799.321 557.632C799.321 551.675 800.431 547.18 802.515 544.018L800.484 542.68C798.041 546.386 796.888 551.414 796.888 557.632H799.321ZM802.522 544.008C804.629 540.739 807.642 538.403 811.621 537.003L810.814 534.709C806.363 536.275 802.898 538.934 800.477 542.69L802.522 544.008ZM811.621 537.003C815.676 535.576 820.49 534.848 826.086 534.848V532.415C820.287 532.415 815.188 533.169 810.814 534.709L811.621 537.003ZM826.086 534.848C828.614 534.848 831.502 535.001 834.751 535.31L834.982 532.889C831.676 532.574 828.709 532.415 826.086 532.415V534.848ZM834.782 535.313C838.118 535.546 841.376 535.856 844.554 536.244L844.848 533.829C841.627 533.436 838.328 533.122 834.951 532.886L834.782 535.313ZM844.557 536.244C847.814 536.632 850.549 537.056 852.767 537.515L853.26 535.133C850.952 534.656 848.144 534.221 844.845 533.829L844.557 536.244ZM851.799 536.258L851.097 549.136L853.526 549.269L854.228 536.39L851.799 536.258ZM852.472 547.997C850.101 547.681 847.345 547.406 844.207 547.17L844.025 549.596C847.131 549.829 849.838 550.1 852.15 550.408L852.472 547.997ZM844.24 547.173C841.186 546.86 838.131 546.586 835.077 546.351L834.891 548.776C837.924 549.01 840.958 549.282 843.992 549.593L844.24 547.173ZM835.08 546.351C832.094 546.115 829.523 545.996 827.374 545.996V548.429C829.439 548.429 831.942 548.543 834.888 548.776L835.08 546.351ZM827.374 545.996C822.844 545.996 819.273 546.703 816.865 548.308L818.214 550.332C820.021 549.127 823.005 548.429 827.374 548.429V545.996ZM816.865 548.308C814.338 549.992 813.162 552.689 813.162 556.11H815.594C815.594 553.287 816.526 551.457 818.214 550.332L816.865 548.308ZM813.162 556.11C813.162 558.59 813.654 560.684 814.81 562.226L816.756 560.766C816.039 559.81 815.594 558.314 815.594 556.11H813.162ZM814.81 562.226C815.944 563.737 817.75 564.861 820.057 565.685L820.875 563.394C818.812 562.657 817.496 561.752 816.756 560.766L814.81 562.226ZM820.07 565.69C822.397 566.492 825.532 567.323 829.454 568.186L829.977 565.811C826.094 564.956 823.062 564.149 820.863 563.39L820.07 565.69ZM829.454 568.186C834.024 569.193 837.871 570.272 841.005 571.419L841.841 569.134C838.575 567.939 834.617 566.833 829.977 565.811L829.454 568.186ZM841.014 571.422C844.202 572.561 846.677 573.904 848.485 575.423L850.049 573.56C847.955 571.801 845.2 570.334 841.832 569.131L841.014 571.422ZM848.503 575.437C850.351 576.93 851.708 578.85 852.573 581.229L854.859 580.398C853.851 577.625 852.242 575.331 850.031 573.545L848.503 575.437ZM852.573 581.229C853.446 583.628 853.905 586.715 853.905 590.531H856.337C856.337 586.542 855.86 583.15 854.859 580.398L852.573 581.229ZM853.905 590.531C853.905 596.641 852.796 601.438 850.679 605.014L852.772 606.253C855.183 602.18 856.337 596.909 856.337 590.531H853.905ZM850.675 605.021C848.632 608.524 845.646 611.082 841.667 612.703L842.584 614.956C847.034 613.143 850.449 610.237 852.776 606.247L850.675 605.021ZM841.678 612.699C837.721 614.266 832.886 615.072 827.14 615.072V617.504C833.101 617.504 838.257 616.67 842.574 614.96L841.678 612.699Z" fill="black"/>
<path d="M593.994 275.419L605.271 271.315L596.652 247.635L585.376 251.739L593.994 275.419Z" fill="#BF4B4B"/>
<path d="M687.946 277.258L698.566 252.109L687.511 247.441L676.891 272.59L687.946 277.258Z" fill="#BF4B4B"/>
<path d="M587.006 222.1C577.506 222.1 569.806 229.8 569.806 239.3C569.806 248.8 577.506 256.5 587.006 256.5C596.506 256.5 604.206 248.8 604.206 239.3C604.206 229.8 596.506 222.1 587.006 222.1Z" fill="#F3CE7D"/>
<path d="M697.006 222.1C687.506 222.1 679.806 229.8 679.806 239.3C679.806 248.8 687.506 256.5 697.006 256.5C706.506 256.5 714.206 248.8 714.206 239.3C714.206 229.8 706.506 222.1 697.006 222.1Z" fill="#F3CE7D"/>
<path d="M894.006 420C894.006 420 895.906 459.1 826.806 426C828.806 425.2 830.606 423.7 831.706 421.9C834.406 417.6 833.906 412 830.606 408.1C830.506 408.1 880.006 428.2 894.006 420V420Z" fill="#BF4B4B"/>
<path d="M823.406 349.9C824.306 349.8 872.706 344 867.406 311.6C867.406 311.6 903.406 363.4 827.706 367.7C829.206 366 830.106 363.8 830.306 361.6C830.906 356.6 828.106 351.8 823.406 349.9V349.9Z" fill="#BF4B4B"/>
<path d="M823.406 349.9C828.106 351.8 830.906 356.6 830.306 361.6C830.106 363.8 829.206 366 827.706 367.7L827.506 367.9C826.006 369.6 823.906 370.7 821.706 371.1L786.106 375.5C793.706 364.4 784.606 353.3 784.606 353.3L819.006 349.3C820.406 349.2 821.906 349.4 823.406 349.9V349.9Z" fill="#EC7774"/>
<path d="M784.506 353.4C784.506 353.4 793.706 364.5 786.006 375.6L756.506 379.2L732.306 382.2L747.406 357.7L784.506 353.4Z" fill="#BF4B4B"/>
<path d="M790.606 391.9C790.606 391.9 798.606 409.4 784.306 417.2V417.3L737.706 405.9L720.406 401.6L732.306 382.2L756.506 379.2L790.606 391.9Z" fill="#EF6865"/>
<path d="M830.506 408.1C833.906 411.9 834.306 417.5 831.606 421.9C830.406 423.8 828.706 425.2 826.706 426C825.606 426.5 824.306 426.7 823.106 426.7C822.006 426.7 820.906 426.5 819.806 426.1L784.206 417.3V417.2C798.506 409.4 790.506 391.9 790.506 391.9L826.606 405.4C828.206 406 829.506 406.9 830.506 408.1V408.1Z" fill="#EC7774"/>
<path d="M801.106 463C862.906 498.5 822.006 527.2 815.506 531.3C815.406 531.4 815.306 531.3 815.206 531.2C815.206 531.1 815.206 531 815.206 531C831.706 504.1 790.106 477.1 790.106 477.1C795.006 477.6 799.606 474.5 801.006 469.7C801.406 468.6 801.506 467.4 801.506 466.2C801.506 465.2 801.406 464.1 801.106 463V463Z" fill="#BF4B4B"/>
<path d="M801.106 463C801.406 464.1 801.606 465.1 801.606 466.2C801.606 467.4 801.406 468.6 801.106 469.7C799.806 474.5 795.206 477.6 790.206 477.1C788.706 476.9 787.206 476.4 785.906 475.5L754.506 453.4C764.706 452.3 769.806 433.5 769.806 433.5L797.006 457.1C799.006 458.6 800.406 460.7 801.106 463V463Z" fill="#EC7774"/>
<path d="M737.706 405.9L769.706 433.6C769.706 433.6 764.606 452.4 754.406 453.5L707.806 420.8C709.306 419.3 710.506 417.7 711.606 415.9L720.406 401.7L737.706 405.9Z" fill="#BF4B4B"/>
<path d="M578.306 423.5L533.706 454.7C519.206 449.8 518.306 435.2 518.306 434.8L550.706 406.8L562.306 403.9L572.706 418C574.306 420 576.206 421.9 578.306 423.5V423.5Z" fill="#BF4B4B"/>
<path d="M533.706 454.7L502.106 476.8C500.806 477.7 499.406 478.2 497.806 478.4C492.906 478.9 488.306 475.8 486.906 471C486.506 469.9 486.406 468.7 486.406 467.5C486.406 466.4 486.606 465.3 486.806 464.3C487.506 461.9 488.906 459.9 490.906 458.4L518.106 434.8C518.306 435.2 519.206 449.8 533.706 454.7V454.7Z" fill="#EC7774"/>
<path d="M487.006 470.9C488.306 475.7 492.906 478.8 497.906 478.3C497.906 478.3 455.806 505.6 473.206 532.7V532.8H473.106C468.906 530.3 423.206 500.8 487.006 464.2C486.706 465.3 486.606 466.3 486.606 467.4C486.406 468.6 486.606 469.8 487.006 470.9V470.9Z" fill="#BF4B4B"/>
<path d="M461.206 427.2C392.006 460.3 394.006 421.2 394.006 421.2C407.806 429.3 456.206 409.8 457.406 409.3C454.006 413.1 453.606 418.7 456.306 423C457.506 424.9 459.206 426.3 461.206 427.2V427.2Z" fill="#BF4B4B"/>
<path d="M504.906 418.1L468.106 427.3C465.906 428.1 463.406 428.1 461.206 427.2C459.206 426.4 457.406 424.9 456.306 423.1C453.606 418.8 454.106 413.2 457.406 409.4C458.406 408.2 459.706 407.3 461.206 406.7L497.906 393.3C497.906 393.2 489.606 408 504.906 418.1V418.1Z" fill="#EC7774"/>
<path d="M550.606 406.7L504.906 418.1C489.606 408 497.906 393.2 497.906 393.2L527.906 382.2L548.606 385.5L562.206 403.8L550.606 406.7Z" fill="#EF6865"/>
<path d="M528.006 382.2L503.206 378.2C494.206 366.6 503.706 354.9 503.706 354.9L528.306 358L548.706 385.5L528.006 382.2Z" fill="#BF4B4B"/>
<path d="M464.606 351.1C466.006 350.6 467.606 350.4 469.106 350.6L503.706 355C503.706 355 494.206 366.6 503.206 378.3L466.406 372.4C464.106 372 462.106 370.9 460.606 369.2C460.506 369.1 460.406 369 460.406 369C458.906 367.3 458.006 365.2 457.806 362.9C457.106 357.7 459.906 352.9 464.606 351.1Z" fill="#EC7774"/>
<path d="M457.706 362.7C457.906 365 458.806 367.1 460.306 368.8C384.606 364.5 420.606 312.7 420.606 312.7C415.306 345.1 463.606 350.9 464.606 351C459.906 352.9 457.106 357.7 457.706 362.7V362.7Z" fill="#BF4B4B"/>
<path d="M806.506 303C810.706 308.9 811.506 314.5 809.806 319.5C804.806 334 778.606 343.9 752.406 345.7C753.106 340 751.606 334.3 748.206 329.7C746.906 328 745.606 326.2 744.006 324.3C744.006 324.3 781.306 287.7 800.906 297.9C803.106 299.1 805.106 300.9 806.506 303V303Z" fill="#EF6865"/>
<path d="M746.406 107C746.406 107 777.606 124.1 774.706 149.7C773.406 161.2 777.606 174 783.406 185.1C779.706 179.2 769.806 171.8 752.206 172.9C723.906 174.7 722.506 124.6 722.506 124.6C722.506 124.6 671.706 216.3 814.906 269.4L849.706 272.8H849.806C849.706 272.7 905.206 134.9 746.406 107V107Z" fill="#EC7774"/>
<path d="M748.206 329.7C746.906 328 745.606 326.2 744.006 324.3C731.406 308.4 710.006 285.8 682.406 272.9C658.806 261.9 630.706 258 599.606 271.4C579.506 280.1 558.106 296.1 535.906 322.2C533.506 325 531.106 327.9 528.806 330.9C524.806 336.1 523.206 342.7 524.506 349.1C525.106 352.3 526.406 355.4 528.406 358L572.806 417.8C574.406 419.9 576.206 421.8 578.406 423.4C582.706 426.7 588.006 428.4 593.406 428.4H689.806C696.606 428.4 703.206 425.6 707.906 420.6C709.406 419.1 710.606 417.5 711.706 415.7L749.206 354.6C753.906 347 753.506 337.1 748.206 329.7Z" fill="#EC7774"/>
<path d="M535.906 322.2C533.506 325 531.106 327.9 528.806 330.9C524.806 336.1 523.206 342.7 524.506 349.1C497.906 347.3 477.706 335.8 476.406 320.3C476.006 315.3 477.606 309.8 481.606 304.1C483.006 302 484.906 300.2 487.106 298.9C505.306 288.4 535.906 322.2 535.906 322.2Z" fill="#EF6865"/>
<path d="M565.606 125.7C565.606 125.7 564.206 175.8 535.906 174C517.006 172.8 507.806 180.6 504.606 186.2C510.506 175.1 514.706 162.3 513.406 150.7C510.506 125.1 541.706 108 541.706 108C382.806 136.1 438.306 273.9 438.306 273.9L473.206 270.6C616.406 217.5 565.606 125.7 565.606 125.7V125.7Z" fill="#EC7774"/>
<path d="M814.806 269.4C823.006 261.4 833.106 257.2 839.706 261.7C844.906 265.3 848.106 269 849.606 272.8C859.106 295.6 809.806 319.5 809.806 319.5C811.606 314.5 810.806 308.9 806.506 303C805.106 300.9 803.106 299.2 800.906 298L801.006 297.8C801.006 287.7 807.106 276.9 814.806 269.4V269.4Z" fill="#BF4B4B"/>
<path d="M487.006 298.9C484.806 300.2 482.906 302 481.506 304.1C477.506 309.8 475.906 315.2 476.306 320.3H476.206C476.206 320.3 428.306 296.6 438.306 273.9C439.906 270.2 443.106 266.5 448.306 262.9C454.906 258.4 465.006 262.6 473.206 270.6C480.906 278.1 487.006 288.9 487.006 298.9V298.9Z" fill="#BF4B4B"/>
<path d="M744.206 171.9C723.606 164.9 722.406 124.6 722.406 124.6C722.406 124.6 671.606 216.3 814.806 269.4L849.606 272.8H849.706C849.706 272.8 850.106 271.8 850.706 270L844.806 269.4C769.006 241.3 747.606 202.3 744.206 171.9V171.9Z" fill="#B75858"/>
<path d="M602.706 417.9L558.306 358.1C556.306 355.5 555.006 352.4 554.406 349.2C553.106 342.8 554.706 336.1 558.706 331C561.106 328 563.506 325.1 565.806 322.3C588.006 296.2 609.406 280.2 629.506 271.5C637.406 268 645.706 265.6 654.206 264.2C637.406 261.5 619.006 263.1 599.506 271.5C579.406 280.2 558.006 296.2 535.806 322.3C533.406 325.1 531.006 328 528.706 331C524.706 336.2 523.106 342.8 524.406 349.2C525.006 352.4 526.306 355.5 528.306 358.1L572.706 417.9C574.306 420.1 576.106 422 578.306 423.7C582.606 427 587.906 428.9 593.306 428.9H623.306C617.906 428.8 612.606 427 608.306 423.7C606.206 422 604.306 420.1 602.706 417.9V417.9Z" fill="#B75858"/>
<path d="M524.406 122C529.406 116.5 535.206 111.9 541.606 108.1C382.806 136.1 438.306 273.9 438.306 273.9L467.306 271.2C461.406 254.1 434.406 162.1 524.406 122V122Z" fill="#B75858"/>
<g opacity="0.66">
<path d="M593.701 350.241L597.985 352.897C598.019 353.309 598.062 353.73 598.104 354.142L594.424 357.581C594.139 357.848 593.956 358.235 593.956 358.656C593.956 359.285 594.352 359.82 594.908 360.033L594.917 360.037L599.617 361.797C599.732 362.209 599.86 362.608 599.987 363.012L597.054 367.088L596.774 367.951C596.774 368.686 597.309 369.289 598.015 369.404H598.024L602.979 370.207L603.574 371.321L601.492 375.898L601.355 376.506C601.355 377.318 602.014 377.981 602.826 377.981H602.885L607.909 377.806L608.704 378.771L607.56 383.68L607.522 384.016C607.522 384.827 608.181 385.49 608.993 385.49L609.341 385.444H609.333L614.229 384.288L615.198 385.082L615.023 390.119V390.183C615.023 390.99 615.678 391.649 616.485 391.649L617.11 391.509L617.102 391.513L621.675 389.43L622.788 390.029L623.596 394.989C623.715 395.695 624.322 396.222 625.053 396.222L625.912 395.945L625.908 395.95L629.983 393.017C630.387 393.145 630.787 393.272 631.195 393.387L632.954 398.087C633.167 398.657 633.707 399.056 634.331 399.056C634.756 399.056 635.139 398.874 635.411 398.58L638.845 394.9C639.257 394.942 639.674 394.985 640.094 395.023L642.746 399.307C643.01 399.732 643.473 400 643.996 400C644.518 400 644.982 399.728 645.245 399.311L645.249 399.307L647.897 395.023C648.318 394.985 648.735 394.942 649.147 394.9L652.576 398.58C652.848 398.861 653.227 399.044 653.652 399.044C654.281 399.044 654.816 398.648 655.033 398.096L655.037 398.087L656.797 393.387C657.205 393.272 657.608 393.145 658.012 393.017L662.088 395.95L662.955 396.226C663.686 396.226 664.289 395.69 664.404 394.989V394.981L665.212 390.021L666.325 389.422L670.898 391.504L671.502 391.632C672.313 391.632 672.977 390.969 672.977 390.153V390.11L672.798 385.074L673.763 384.279L678.663 385.435L678.999 385.478C679.811 385.478 680.474 384.815 680.474 383.999L680.435 383.659V383.667L679.283 378.758L680.074 377.79L685.11 377.968H685.178C685.986 377.968 686.64 377.313 686.64 376.502L686.496 375.877L686.5 375.885L684.417 371.308L685.017 370.195L689.972 369.391C690.678 369.268 691.205 368.66 691.205 367.929L690.928 367.071L690.933 367.075L688 362.999L688.37 361.784L693.07 360.024C693.636 359.808 694.031 359.276 694.031 358.643C694.031 358.218 693.848 357.836 693.559 357.568L689.883 354.13C689.925 353.717 689.968 353.301 690.002 352.88L694.282 350.232C694.719 349.969 695 349.51 695 348.983C695 348.452 694.719 347.988 694.299 347.733L694.294 347.729L694.286 347.742L690.006 345.09C689.96 344.563 689.926 344.189 689.892 343.836L693.568 340.411C693.848 340.143 694.027 339.76 694.027 339.335C694.027 338.706 693.636 338.171 693.083 337.954L693.07 337.95L688.37 336.195C688.221 335.659 688.115 335.302 688.004 334.971L690.933 330.904L691.213 330.041C691.213 329.31 690.678 328.706 689.981 328.591H689.972L685.017 327.788C684.77 327.299 684.592 326.976 684.422 326.666L686.504 322.098C686.721 321.634 686.674 321.09 686.39 320.669C686.105 320.244 685.625 319.998 685.11 320.015L680.078 320.189L679.254 319.195L679.279 319.229L680.439 314.324L680.478 313.988C680.478 313.177 679.811 312.509 678.999 312.509L678.654 312.548H678.663L673.758 313.708L672.904 312.998L672.794 312.913L672.968 307.877V307.805C672.968 306.997 672.313 306.338 671.506 306.338L670.881 306.479L670.89 306.474L666.317 308.561L665.203 307.962L664.396 302.998C664.272 302.292 663.665 301.77 662.938 301.77L662.075 302.042L662.079 302.037L657.999 304.97C657.855 304.915 657.451 304.787 657.043 304.672L656.784 304.604L655.024 299.9C654.803 299.343 654.268 298.948 653.643 298.948C653.222 298.948 652.84 299.126 652.572 299.411L649.147 303.1C648.9 303.07 648.475 303.028 648.042 302.989L647.897 302.981L645.249 298.697C644.986 298.272 644.518 298 643.996 298C643.473 298 643.006 298.276 642.751 298.693L642.746 298.697L640.094 302.981C639.674 303.015 639.261 303.062 638.845 303.1L635.411 299.415C635.139 299.13 634.76 298.948 634.335 298.948C633.711 298.948 633.171 299.347 632.959 299.9L632.954 299.904L631.195 304.613C630.787 304.728 630.387 304.855 629.979 304.978L625.908 302.046L625.053 301.774C624.322 301.774 623.719 302.301 623.596 302.994V303.002L622.788 307.966C622.299 308.217 621.976 308.391 621.666 308.561L617.098 306.474L616.485 306.343C615.674 306.343 615.015 307.001 615.015 307.817V307.873L615.189 312.909L614.22 313.704L609.324 312.543L608.988 312.505C608.172 312.505 607.514 313.168 607.514 313.984L607.552 314.329V314.32L608.704 319.224L607.913 320.181L602.877 320.011H602.822C602.006 320.011 601.351 320.669 601.351 321.485L601.492 322.102L601.483 322.093L603.57 326.666L603.077 327.567L602.975 327.784L598.015 328.587C597.309 328.71 596.782 329.318 596.782 330.049L597.059 330.908V330.904L599.991 334.979C599.864 335.387 599.745 335.783 599.621 336.195L594.921 337.954C594.36 338.175 593.969 338.711 593.969 339.335C593.969 339.756 594.148 340.139 594.428 340.406L598.108 343.836C598.074 344.083 598.036 344.508 597.998 344.945L597.989 345.086L593.71 347.738C593.28 348.001 593 348.46 593 348.991C593 349.518 593.281 349.977 593.701 350.241ZM622.07 383.115L622.049 383.119L621.415 383.191C619.741 383.191 618.381 381.831 618.381 380.157C618.381 378.703 619.397 377.492 620.757 377.19L620.778 377.186L621.415 377.122C623.09 377.122 624.45 378.478 624.45 380.157C624.45 381.602 623.434 382.817 622.07 383.115ZM666.266 383.331L665.62 383.259C664.247 382.953 663.235 381.742 663.235 380.297C663.235 378.622 664.591 377.262 666.27 377.262L666.907 377.326C668.284 377.637 669.3 378.843 669.3 380.293C669.3 381.971 667.936 383.331 666.266 383.331ZM674.035 370.751C672.934 372.247 671.799 373.565 670.584 374.802L664.179 373.425L664.183 373.429L663.605 373.369C662.284 373.369 661.178 374.3 660.911 375.537L660.906 375.554L659.385 382.647C654.697 384.781 649.491 385.962 644.004 385.962H643.949C638.356 385.962 633.056 384.713 628.296 382.498L626.779 375.41C626.507 374.152 625.402 373.225 624.084 373.225L623.485 373.285L623.502 373.28L617.242 374.623C616.116 373.463 615.049 372.218 614.076 370.904L614.008 370.807H644.467L645.046 370.433V359.65L644.467 359.276H635.555V352.442H645.194C646.07 352.442 649.895 352.693 651.119 357.581C651.501 359.085 652.338 363.977 652.916 365.545C653.49 367.3 655.819 370.807 658.305 370.807H673.486L674.06 370.743L674.035 370.751ZM635.564 342.353V335.328H648.144C648.794 335.328 652.729 336.08 652.729 339.025C652.729 341.469 649.708 342.349 647.226 342.349H635.564V342.353ZM677.192 336.386V336.382C677.868 334.852 679.657 334.163 681.183 334.843C682.258 335.323 682.994 336.386 682.994 337.618C682.994 339.293 681.634 340.653 679.959 340.653C678.289 340.653 676.929 339.293 676.929 337.618C676.929 337.176 677.018 336.76 677.192 336.386ZM641.756 307.843V307.852C642.296 307.333 643.035 307.014 643.847 307.014C645.521 307.014 646.877 308.366 646.877 310.045C646.877 310.903 646.516 311.685 645.938 312.233C645.407 312.692 644.714 312.968 643.953 312.968C642.279 312.968 640.919 311.608 640.919 309.934C640.919 309.127 641.237 308.391 641.756 307.843ZM636.847 312.05L637.085 312.012L641.752 316.904C642.253 317.435 642.959 317.763 643.749 317.763C644.489 317.763 645.16 317.469 645.653 316.997L650.868 312.004C661.867 314.116 670.979 320.822 676.291 330.007L676.385 330.189L672.811 338.256C672.662 338.587 672.577 338.974 672.577 339.378C672.577 340.5 673.244 341.465 674.196 341.902L674.213 341.911L681.09 344.967C681.209 346.191 681.273 347.419 681.273 348.673H681.281C681.281 349.603 681.247 350.526 681.175 351.439H677.35C676.967 351.439 676.81 351.69 676.81 352.068V353.828C676.81 357.963 674.481 358.86 672.432 359.089C670.49 359.31 668.331 358.278 668.068 357.084C666.916 350.624 665.008 349.246 661.986 346.866C665.734 344.486 669.632 340.972 669.632 336.271C669.632 331.197 666.151 327.996 663.779 326.428C660.452 324.231 656.771 323.793 655.781 323.793H616.235C621.573 317.835 628.738 313.627 636.847 312.05ZM614.866 338.09L614.875 338.107L613.532 335.073H618.814V358.89H608.16C607.254 355.834 606.736 352.319 606.736 348.685C606.736 347.325 606.812 345.978 606.957 344.656L613.468 341.762C614.445 341.32 615.113 340.351 615.113 339.233C615.108 338.821 615.023 338.443 614.866 338.09ZM607.76 334.516C608.959 334.516 609.991 335.209 610.484 336.216L610.493 336.233V336.237C610.684 336.624 610.795 337.074 610.795 337.55C610.795 339.229 609.435 340.585 607.76 340.585C606.498 340.585 605.418 339.82 604.959 338.715L604.951 338.694C604.811 338.354 604.73 337.963 604.73 337.546C604.73 335.876 606.09 334.516 607.76 334.516Z" fill="black"/>
<path d="M644.463 359.276H644V370.807H644.463L645.041 370.433V359.65L644.463 359.276ZM665.624 383.263H665.62C664.247 382.957 663.235 381.746 663.235 380.301C663.235 378.627 664.591 377.267 666.27 377.267L666.907 377.331C668.284 377.641 669.3 378.848 669.3 380.297C669.3 381.971 667.94 383.331 666.266 383.331L665.624 383.263ZM679.959 340.653C678.289 340.653 676.929 339.293 676.929 337.618C676.929 337.172 677.022 336.76 677.192 336.386V336.382C677.694 335.251 678.799 334.58 679.959 334.58C680.371 334.58 680.788 334.665 681.187 334.843C682.263 335.323 682.998 336.386 682.998 337.618C682.994 339.293 681.634 340.653 679.959 340.653ZM644 298V307.018C645.602 307.099 646.873 308.421 646.873 310.045C646.873 310.903 646.512 311.685 645.934 312.233C645.419 312.684 644.744 312.96 644 312.968V317.75C644.637 317.69 645.215 317.414 645.653 316.993L650.868 311.999C661.867 314.112 670.979 320.818 676.291 330.002L676.385 330.185L672.811 338.252C672.662 338.583 672.577 338.97 672.577 339.374C672.577 340.496 673.244 341.46 674.196 341.898L674.213 341.907L681.09 344.963C681.209 346.187 681.272 347.415 681.272 348.668H681.281C681.281 349.599 681.247 350.521 681.175 351.435H677.35C676.967 351.435 676.81 351.686 676.81 352.064V353.824C676.81 357.959 674.481 358.856 672.432 359.085C672.254 359.106 672.075 359.115 671.897 359.115C670.112 359.115 668.31 358.163 668.068 357.079C666.916 350.619 665.008 349.242 661.986 346.862C665.734 344.482 669.632 340.967 669.632 336.267C669.632 331.192 666.151 327.992 663.779 326.424C660.452 324.227 656.771 323.789 655.781 323.789H644V335.332H648.144C648.794 335.332 652.729 336.084 652.729 339.03C652.729 341.473 649.708 342.353 647.226 342.353H644V352.442H645.194C646.07 352.442 649.895 352.693 651.119 357.581C651.501 359.085 652.338 363.977 652.916 365.545C653.49 367.3 655.819 370.807 658.305 370.807H673.486L674.06 370.743L674.039 370.751C672.938 372.247 671.803 373.565 670.588 374.802L664.183 373.425L664.187 373.429L663.609 373.369C662.288 373.369 661.183 374.3 660.915 375.537L660.911 375.554L659.389 382.647C654.701 384.781 649.495 385.962 644.008 385.962H644V400H644.004C644.527 400 644.99 399.728 645.254 399.311L645.258 399.307L647.906 395.023C648.326 394.985 648.743 394.942 649.155 394.9L652.585 398.58C652.857 398.861 653.235 399.044 653.66 399.044C654.289 399.044 654.825 398.648 655.041 398.096L655.046 398.087L656.805 393.387C657.213 393.272 657.617 393.145 658.021 393.017L662.096 395.95L662.963 396.226C663.694 396.226 664.298 395.69 664.413 394.989V394.981L665.22 390.021L666.334 389.422L670.907 391.504L671.51 391.632C672.322 391.632 672.985 390.969 672.985 390.153V390.11L672.806 385.074L673.771 384.279L678.671 385.435L679.007 385.478C679.819 385.478 680.482 384.815 680.482 383.999L680.444 383.659V383.667L679.292 378.758L680.082 377.79L685.119 377.968H685.187C685.994 377.968 686.649 377.313 686.649 376.502L686.504 375.877L686.508 375.885L684.426 371.308L685.025 370.195L689.981 369.391C690.686 369.268 691.213 368.66 691.213 367.929L690.937 367.071L690.941 367.075L688.009 362.999L688.378 361.784L693.079 360.024C693.644 359.808 694.039 359.276 694.039 358.643C694.039 358.218 693.857 357.836 693.568 357.568L689.891 354.13C689.934 353.717 689.976 353.301 690.01 352.88L694.29 350.232C694.719 349.969 695 349.51 695 348.983C695 348.452 694.719 347.988 694.299 347.733L694.294 347.729L694.286 347.742L690.006 345.09C689.96 344.563 689.926 344.189 689.892 343.836L693.568 340.411C693.848 340.143 694.027 339.76 694.027 339.335C694.027 338.706 693.636 338.171 693.083 337.954L693.07 337.95L688.37 336.195C688.221 335.659 688.115 335.302 688.004 334.971L690.933 330.904L691.213 330.041C691.213 329.31 690.678 328.706 689.981 328.591H689.972L685.017 327.788C684.77 327.299 684.592 326.976 684.422 326.666L686.504 322.098C686.721 321.634 686.674 321.09 686.39 320.669C686.113 320.257 685.654 320.015 685.161 320.015C685.144 320.015 685.127 320.015 685.11 320.015L680.078 320.189L679.279 319.229L680.439 314.329L680.478 313.993C680.478 313.181 679.81 312.514 678.999 312.514L678.654 312.552H678.663L673.758 313.712L672.904 313.002L672.794 312.917L672.968 307.881L672.968 307.805C672.968 306.997 672.313 306.338 671.506 306.338L670.881 306.479L670.89 306.474L666.317 308.561L665.203 307.962L664.396 302.998C664.272 302.292 663.665 301.77 662.938 301.77L662.075 302.042L657.999 304.97C657.855 304.915 657.451 304.787 657.043 304.672L656.784 304.604L655.024 299.9C654.803 299.343 654.268 298.948 653.643 298.948C653.222 298.948 652.84 299.126 652.572 299.411L649.147 303.1C648.9 303.07 648.475 303.028 648.042 302.989L647.897 302.981L645.249 298.697C644.986 298.276 644.523 298 644 298Z" fill="black"/>
</g>
</g>
<defs>
<clipPath id="clip0_1_2">
<rect width="1280" height="640" rx="56" fill="white"/>
</clipPath>
</defs>
</svg>